<svg xmlns="http://www.w3.org/2000/svg" xmlns:xlink="http://www.w3.org/1999/xlink" width="500" zoomAndPan="magnify" viewBox="0 0 375 374.999991" height="500" preserveAspectRatio="xMidYMid meet" version="1.2"><defs><clipPath id="613f73cdf0"><path d="M 113.140625 123.691406 L 256.757812 123.691406 L 256.757812 255 L 113.140625 255 Z M 113.140625 123.691406 "/></clipPath></defs><g id="948c834712"><g clip-rule="nonzero" clip-path="url(#613f73cdf0)"><path style=" stroke:none;fill-rule:nonzero;fill:#ffffff;fill-opacity:1;" d="M 178.230469 198.144531 L 176.597656 196.5625 C 175.691406 195.699219 173.15625 193.175781 170.929688 190.957031 C 164.335938 184.347656 161.320312 181.660156 157.246094 178.765625 C 152.117188 175.128906 147.527344 173.015625 142.011719 171.742188 C 138.9375 171.023438 133.613281 170.839844 130.578125 171.332031 C 121.855469 172.789062 115.628906 178.1875 113.941406 185.785156 C 113.363281 188.308594 113.5 192.5 114.226562 195.167969 C 115.667969 200.464844 119.339844 206.089844 124.027344 210.132812 C 133.632812 218.425781 146.316406 221.835938 158.996094 219.496094 C 165.046875 218.386719 171.484375 215.820312 176.921875 212.390625 C 178.25 211.570312 178.460938 211.488281 178.804688 211.714844 C 180.535156 212.90625 182.839844 214.320312 184.570312 215.226562 C 186.300781 216.148438 186.605469 216.375 186.511719 216.722656 C 186.472656 216.949219 185.894531 218.753906 185.261719 220.726562 C 182.800781 228.382812 181.207031 244.828125 180.417969 254.046875 L 189.144531 254.230469 C 189.835938 243.882812 193.675781 227.910156 196.464844 219.78125 C 196.464844 219.78125 202.535156 220.933594 204.820312 221.15625 C 208.222656 221.464844 217.769531 221.28125 220.710938 220.847656 C 227.359375 219.84375 232.429688 218.179688 238.367188 215.082031 C 246.726562 210.707031 252.738281 204.898438 255.546875 198.535156 C 257.003906 195.1875 257.199219 194.265625 257.199219 190.546875 C 257.179688 187.488281 257.160156 187.285156 256.542969 185.375 C 253.875 177.039062 246.628906 172.257812 236.714844 172.277344 C 220.59375 172.316406 203.109375 184.636719 192.753906 203.277344 C 190.582031 207.21875 191.023438 206.910156 188.988281 205.820312 C 188.046875 205.308594 187.066406 204.753906 186.816406 204.589844 L 186.375 204.28125 L 187.414062 203.070312 C 192.390625 197.34375 197.519531 188.886719 200.421875 181.636719 C 203.6875 173.488281 205.300781 165.726562 205.550781 157.085938 C 205.667969 152.546875 205.457031 149.449219 204.742188 145.671875 C 202.613281 134.417969 196.789062 126.3125 189.316406 124.214844 C 187.625 123.722656 184.222656 123.539062 182.515625 123.828125 C 180.746094 124.132812 178 125.203125 176.328125 126.25 C 174.464844 127.417969 171.675781 130.292969 170.410156 132.347656 C 166.683594 138.402344 164.875 146.101562 164.855469 155.957031 C 164.835938 160.347656 165.066406 163.039062 165.738281 166.628906 C 167.21875 174.472656 170.121094 181.472656 174.269531 187.203125 C 175.730469 189.214844 178.765625 192.539062 180.246094 193.75 C 180.765625 194.183594 181.207031 194.59375 181.207031 194.652344 C 181.207031 194.714844 180.535156 195.515625 179.707031 196.460938 Z M 168.277344 205.390625 C 162.703125 208.246094 157.074219 209.640625 151.214844 209.640625 C 145.546875 209.621094 140.820312 208.46875 136.015625 205.945312 C 130.984375 203.296875 126.660156 199.027344 124.660156 194.757812 C 121.625 188.269531 124.085938 183.589844 131.445312 181.824219 C 132.347656 181.597656 133.558594 181.535156 135.765625 181.597656 C 138.417969 181.660156 139.148438 181.761719 141.050781 182.296875 C 144.796875 183.320312 148.121094 184.941406 151.617188 187.40625 C 155.402344 190.097656 158.113281 192.519531 164.300781 198.738281 C 166.046875 200.503906 168.066406 202.515625 168.777344 203.195312 L 170.101562 204.445312 Z M 206.109375 201.140625 C 213.679688 191.101562 223.976562 184.347656 233.851562 182.953125 C 235.621094 182.707031 239.480469 182.871094 240.960938 183.28125 C 245.898438 184.613281 248.457031 188.597656 247.109375 192.886719 C 244.726562 200.566406 231.894531 208.632812 219.15625 210.460938 C 216.65625 210.8125 208.492188 210.953125 205.898438 210.6875 C 202.4375 210.339844 200.613281 209.742188 200.613281 209.742188 C 200.613281 209.742188 204.359375 203.441406 206.109375 201.140625 Z M 175.921875 167.082031 C 174.925781 162.894531 174.597656 159.589844 174.730469 154.828125 C 175.019531 143.125 178.382812 135.507812 183.78125 134.296875 C 186.414062 133.703125 189.316406 135.160156 191.332031 138.074219 C 197.117188 146.449219 197.25 162.503906 191.660156 176.753906 C 190.199219 180.46875 186.972656 186.03125 186.972656 186.03125 C 186.972656 186.03125 182.398438 181.332031 181.246094 179.566406 C 178.785156 175.828125 177.058594 171.785156 175.921875 167.082031 Z M 175.921875 167.082031 "/></g></g></svg>